<?xml version="1.0" encoding="iso-8859-1"?>
<!-- Uploaded to: SVG Repo, www.svgrepo.com, Generator: SVG Repo Mixer Tools -->
<svg version="1.1" id="Layer_1" xmlns="http://www.w3.org/2000/svg" xmlns:xlink="http://www.w3.org/1999/xlink" 
	 viewBox="0 0 512 512" xml:space="preserve">
<polygon style="fill:#A58763;" points="280.094,82.643 280.094,153.6 231.906,153.6 231.906,82.643 231.906,9.035 280.094,9.035 "/>
<path style="fill:#F4661E;" d="M280.094,153.6V82.643c105.05,12.047,186.729,101.195,186.729,209.498
	c0,116.375-94.449,210.824-210.824,210.824S45.176,408.516,45.176,292.141c0-108.303,81.679-197.451,186.729-209.498V153.6
	C231.906,153.6,280.094,153.6,280.094,153.6z"/>
<path style="fill:#F04E23;" d="M153.6,292.141c0-66.189,30.601-125.114,78.306-163.768V82.643
	C126.856,94.69,45.176,183.838,45.176,292.141c0,116.375,94.449,210.824,210.824,210.824c18.774,0,36.883-2.695,54.212-7.307
	C220.127,471.682,153.6,389.742,153.6,292.141z"/>
<path d="M256,493.929c-111.265,0-201.788-90.523-201.788-201.788c0-57.034,24.323-111.673,66.732-149.906l-12.099-13.42
	C62.64,170.467,36.141,229.998,36.141,292.141C36.141,413.372,134.769,512,256,512c53.146,0,104.459-19.242,144.485-54.18
	l-11.882-13.614C351.868,476.271,304.775,493.929,256,493.929z"/>
<path d="M289.129,74.746V0h-66.259v74.752c-33.138,5.059-64.972,17.748-92.519,36.971l10.341,14.819
	c24.524-17.114,52.752-28.576,82.178-33.485v51.507h-33.129v18.071h132.518v-18.071h-33.129V93.033
	c96.841,16.02,168.659,99.885,168.659,199.108c0,53.088-20.475,103.225-57.652,141.177l12.908,12.645
	c40.506-41.349,62.815-95.977,62.815-153.822C475.859,183.027,396.139,90.969,289.129,74.746z M240.941,144.565V18.071h30.118
	v126.494H240.941z"/>
<path d="M256,445.741v-18.071c-74.73,0-135.529-60.799-135.529-135.529H102.4C102.4,376.837,171.304,445.741,256,445.741z"/>
<rect x="280.094" y="427.671" width="30.118" height="18.071"/>
<g>
	<rect x="334.306" y="234.918" style="fill:#FFFFFF;" width="24.094" height="18.071"/>
	<rect x="358.4" y="259.012" style="fill:#FFFFFF;" width="24.094" height="18.071"/>
	<rect x="382.494" y="234.918" style="fill:#FFFFFF;" width="24.094" height="18.071"/>
</g>
</svg>